<?xml version="1.0" encoding="UTF-8" standalone="no"?>
<svg
   xmlns:dc="http://purl.org/dc/elements/1.1/"
   xmlns:cc="http://creativecommons.org/ns#"
   xmlns:rdf="http://www.w3.org/1999/02/22-rdf-syntax-ns#"
   xmlns:svg="http://www.w3.org/2000/svg"
   xmlns="http://www.w3.org/2000/svg"
   xmlns:sodipodi="http://sodipodi.sourceforge.net/DTD/sodipodi-0.dtd"
   xmlns:inkscape="http://www.inkscape.org/namespaces/inkscape"
   width="43.425781pt"
   height="14.015007pt"
   viewBox="0 0 43.425781 14.015007"
   version="1.1"
   id="svg23"
   sodipodi:docname="visa.svg"
   inkscape:version="1.0 (4035a4fb49, 2020-05-01)">
  <metadata
     id="metadata29">
    <rdf:RDF>
      <cc:Work
         rdf:about="">
        <dc:format>image/svg+xml</dc:format>
        <dc:type
           rdf:resource="http://purl.org/dc/dcmitype/StillImage" />
      </cc:Work>
    </rdf:RDF>
  </metadata>
  <defs
     id="defs27" />
  <sodipodi:namedview
     inkscape:document-rotation="0"
     pagecolor="#ffffff"
     bordercolor="#666666"
     borderopacity="1"
     objecttolerance="10"
     gridtolerance="10"
     guidetolerance="10"
     inkscape:pageopacity="0"
     inkscape:pageshadow="2"
     inkscape:window-width="732"
     inkscape:window-height="510"
     id="namedview25"
     showgrid="false"
     inkscape:zoom="1.683404"
     inkscape:cx="28.973959"
     inkscape:cy="19.546991"
     inkscape:window-x="0"
     inkscape:window-y="0"
     inkscape:window-maximized="0"
     inkscape:current-layer="svg23" />
  <g
     transform="translate(-15.769531,-14.839757)"
     id="surface1">
    <path
       style="fill:#0051a3;fill-opacity:1;fill-rule:evenodd;stroke:none"
       d="m 52.96875,21.289063 c 0.289063,-0.792969 0.617188,-1.765625 0.980469,-2.484375 l 0.464844,2.535156 c 0.08984,0.421875 0.179687,0.835937 0.269531,1.253906 0.08594,0.386719 0.210937,0.851563 0.261719,1.234375 l -2.898438,-0.0078 z m -2.75,7.378906 c 0.25,-0.140625 0.636719,-2 0.855469,-2.050781 l 4.351562,0.0039 c 0.140625,0.02734 0.117188,0.125 0.152344,0.292969 0.109375,0.578125 0.277344,1.195312 0.367188,1.753906 l 3.25,-0.0078 -2.835938,-13.558593 c -0.953125,-0.01953 -1.996094,-0.03516 -2.941406,0.01172 -0.871094,0.04297 -1.320313,0.363282 -1.671875,1.230469 -0.554688,1.367188 -1.132813,2.742188 -1.710938,4.097656 -0.582031,1.367188 -1.140625,2.742188 -1.71875,4.117188 l -1.707031,4.109375 h 3.609375"
       id="path12" />
    <path
       style="fill:#0051a3;fill-opacity:1;fill-rule:evenodd;stroke:none"
       d="M 46.90625,18.332031 47.332031,15.375 c -0.289062,-0.175781 -1.238281,-0.351562 -1.640625,-0.417969 -2.824218,-0.464843 -6.644531,0.394532 -7.328125,3.617188 -0.289062,1.371094 0.273438,2.566406 1.398438,3.460937 1.300781,1.035157 3.441406,1.546875 3.445312,2.640625 0,0.574219 -0.511718,0.957032 -0.929687,1.136719 -0.429688,0.179688 -1.273438,0.210938 -1.78125,0.179688 -1.296875,-0.07813 -2.121094,-0.441407 -3.144531,-0.890625 l -0.503907,3.046875 c 0.234375,0.05469 0.519532,0.1875 0.78125,0.265625 2.703125,0.796875 6.710938,0.6875 8.496094,-1.800782 0.542969,-0.757812 0.917969,-2.019531 0.648438,-3.179687 -0.121094,-0.53125 -0.394532,-1.078125 -0.683594,-1.363281 -0.191406,-0.1875 -0.285156,-0.328125 -0.496094,-0.507813 -1.0625,-0.902344 -2.257812,-1.167969 -3.113281,-1.90625 -0.351563,-0.304687 -0.808594,-0.628906 -0.324219,-1.332031 0.546875,-0.796875 2.347656,-0.703125 3.234375,-0.5 0.8125,0.1875 1.214844,0.4375 1.515625,0.507812"
       id="path14" />
    <path
       style="fill:#0051a3;fill-opacity:1;fill-rule:evenodd;stroke:none"
       d="m 24.414063,22.535156 c -0.386719,-1.335937 -1.230469,-2.527343 -1.949219,-3.328125 -0.109375,-0.121093 -0.191406,-0.25 -0.3125,-0.359375 -0.08984,-0.08203 -0.08984,-0.0625 -0.171875,-0.160156 -0.375,-0.449219 -1.835938,-1.554687 -2.386719,-1.828125 0.07422,0.464844 0.625,2.339844 0.789063,2.980469 l 1.550781,5.886719 c 0.25,0.980468 0.550781,1.960937 0.792969,2.921875 l 3.652343,0.02344 c 0.05078,-0.210937 0.582032,-1.390625 0.710938,-1.710937 0.234375,-0.570313 0.464844,-1.121094 0.699219,-1.683594 0.949218,-2.265625 1.835937,-4.550781 2.773437,-6.828125 0.304688,-0.75 1.164063,-2.746094 1.371094,-3.359375 h -3.71875 l -3.410156,9.21875 c -0.15625,-0.300781 -0.210938,-1.503906 -0.390625,-1.773438"
       id="path16" />
    <path
       style="fill:#0051a3;fill-opacity:1;fill-rule:evenodd;stroke:none"
       d="m 36.84375,15.085938 -3.5,0.0078 c -0.386719,2.246094 -0.726562,4.511719 -1.089844,6.753906 L 31.4375,26.953125 c -0.08203,0.542969 -0.207031,1.160156 -0.242187,1.703125 h 3.472656 L 36.84375,15.085938"
       id="path18" />
    <path
       style="fill:#faa817;fill-opacity:1;fill-rule:evenodd;stroke:none"
       d="m 19.59375,16.859375 c 0.550781,0.273438 2.011719,1.378906 2.386719,1.828125 0.08203,0.09766 0.08203,0.07813 0.171875,0.160156 0.121094,0.109375 0.203125,0.238282 0.3125,0.359375 0.71875,0.800782 1.5625,1.992188 1.949219,3.328125 0.04687,-0.179687 -0.546875,-2.925781 -0.632813,-3.382812 -0.125,-0.65625 -0.5,-2.914063 -0.742187,-3.347656 -0.257813,-0.464844 -0.632813,-0.679688 -1.34375,-0.703125 -1.316407,-0.04297 -2.726563,-0.0039 -4.066407,-0.01953 -0.511718,-0.0078 -1.480468,-0.08594 -1.859375,0.183594 0.0039,0.0039 0.01563,0.0039 0.01953,0.01172 0.0039,0.01172 0.01953,0.01172 0.02344,0.01563 0.171875,0.08984 -0.0625,-0.02344 0.04687,0.02734 l 0.394531,0.128906 c 0.988282,0.328125 2.566407,0.867187 3.339844,1.410156"
       id="path20" />
  </g>
</svg>
